HIERARCHY
ROOT hip
{
	OFFSET 0.000000 0.000000 0.000000 
	CHANNELS 6 Xposition Yposition Zposition Xrotation Zrotation Yrotation
	JOINT abdomen
	{
		OFFSET 0.000000 3.402643 0.000000 
		CHANNELS 3 Xrotation Zrotation Yrotation
		JOINT chest
		{
			OFFSET 0.000000 8.438565 -0.680529 
			CHANNELS 3 Xrotation Zrotation Yrotation
			JOINT neck
			{
				OFFSET 0.000000 10.207942 -0.272212 
				CHANNELS 3 Xrotation Zrotation Yrotation
				JOINT head
				{
					OFFSET 0.000000 3.130431 0.000000 
					CHANNELS 3 Xrotation Zrotation Yrotation
					End Site
					{
						OFFSET 0.000000 3.130435 0.000000 
					}
				}
			}
			JOINT lCollar
			{
				OFFSET 3.470700 6.669187 -0.816635 
				CHANNELS 3 Yrotation Zrotation Xrotation
				JOINT lShldr
				{
					OFFSET 3.198488 0.000000 0.000000 
					CHANNELS 3 Zrotation Yrotation Xrotation
					JOINT lForeArm
					{
						OFFSET 10.139888 0.000000 0.000000 
						CHANNELS 3 Yrotation Zrotation Xrotation
						JOINT lHand
						{
							OFFSET 8.370511 0.000000 0.000000 
							CHANNELS 3 Zrotation Yrotation Xrotation
							End Site
							{
								OFFSET 4.083176 0.000000 0.000000 
							}
						}
					}
				}
			}
			JOINT rCollar
			{
				OFFSET -3.470700 6.669187 -0.816635 
				CHANNELS 3 Yrotation Zrotation Xrotation
				JOINT rShldr
				{
					OFFSET -3.198488 0.000000 0.000000 
					CHANNELS 3 Zrotation Yrotation Xrotation
					JOINT rForeArm
					{
						OFFSET -10.139888 0.000000 0.000000 
						CHANNELS 3 Yrotation Zrotation Xrotation
						JOINT rHand
						{
							OFFSET -8.370511 0.000000 0.000000 
							CHANNELS 3 Zrotation Yrotation Xrotation
							End Site
							{
								OFFSET -4.083176 0.000000 0.000000 
							}
						}
					}
				}
			}
		}
	}
	JOINT lThigh
	{
		OFFSET 5.308129 -1.633274 1.361059 
		CHANNELS 3 Xrotation Zrotation Yrotation
		JOINT lShin
		{
			OFFSET -2.041588 -20.007561 0.000000 
			CHANNELS 3 Xrotation Zrotation Yrotation
			JOINT lFoot
			{
				OFFSET 0.000000 -19.190928 -1.224953 
				CHANNELS 3 Xrotation Yrotation Zrotation
				End Site
				{
					OFFSET 0.000000 -2.449906 4.627600 
				}
			}
		}
	}
	JOINT rThigh
	{
		OFFSET -5.308129 -1.633274 1.361059 
		CHANNELS 3 Xrotation Zrotation Yrotation
		JOINT rShin
		{
			OFFSET 2.041588 -20.007561 0.000000 
			CHANNELS 3 Xrotation Zrotation Yrotation
			JOINT rFoot
			{
				OFFSET 0.000000 -19.190928 -1.224953 
				CHANNELS 3 Xrotation Yrotation Zrotation
				End Site
				{
					OFFSET 0.000000 -2.449906 4.627600 
				}
			}
		}
	}
}
MOTION
Frames: 6
Frame Time: 0.016667
-8.215552 43.862530 38.727524 -7.647910 -1.103380 45.343399 -22.723801 0.689357 -3.081760 13.758100 1.280000 -1.441610 -7.306267 -8.459640 -16.565290 5.218390 10.571400 -6.185220 2.000000 -2.000000 0.000000 138.871994 -78.704201 -19.899300 62.500500 -0.277977 0.121322 0.153072 -0.161541 151.994003 -2.000000 2.000000 0.000000 -12.340000 70.107201 112.099998 -89.746597 0.215454 0.136724 -0.065275 -0.048309 -115.700996 -10.278041 7.923006 -4.038365 48.761024 2.399480 3.208757 -10.933214 -10.115089 -3.359814 -16.515751 5.873557 2.040764 45.821342 -2.135257 -3.202406 -7.447288 -6.108688 -2.538638 
-8.092362 44.884884 38.890865 -7.160340 -1.395290 45.839298 -23.253599 0.731085 -2.968510 13.581700 1.463700 -1.389930 -6.770991 -8.576433 -16.895416 5.457270 10.638300 -6.306570 2.000000 -2.000000 0.000000 134.404007 -76.956902 -15.238600 60.547401 -0.282074 0.119101 0.152503 -0.161345 152.209000 -2.000000 2.000000 0.000000 -18.530199 68.862099 105.803001 -85.156799 0.226392 0.136236 -0.066692 -0.051836 -114.344002 -9.790244 7.325824 -4.888440 45.730034 2.591301 3.018394 -5.540886 -10.314454 -2.025707 -15.837361 5.633646 2.057508 42.911995 -2.286049 -3.044030 -2.920838 -5.750208 -1.814287 
-7.980103 45.792645 39.027470 -6.594670 -1.687980 46.161800 -23.744699 0.742161 -2.797770 13.434800 1.579520 -1.300770 -6.290310 -8.687575 -17.197874 5.656280 10.675900 -6.433640 2.000000 -2.000000 0.000000 130.533005 -75.111298 -10.988200 58.379398 -0.286529 0.116473 0.152761 -0.161435 152.110992 -2.000000 2.000000 0.000000 -25.680201 67.518097 98.452599 -79.131401 0.240628 0.134271 -0.067764 -0.054352 -113.366997 -9.569786 6.681629 -5.413992 43.133678 2.714082 2.879237 -0.865117 -9.586516 -0.877457 -15.346815 5.438924 2.354884 40.285904 -2.410760 -2.880401 0.935480 -6.148003 -1.277084 
-7.881504 46.540962 39.145756 -6.019340 -2.010350 46.305599 -24.207199 0.733256 -2.541440 13.327300 1.588840 -1.178000 -5.976697 -8.809112 -17.484325 5.785780 10.714000 -6.555430 2.000000 -2.000000 0.000000 127.286003 -73.176903 -7.147500 55.967300 -0.291365 0.113354 0.153098 -0.161550 151.985001 -2.000000 2.000000 0.000000 -33.395302 65.908203 90.536301 -71.758301 0.257645 0.129852 -0.068505 -0.056028 -112.712997 -9.466166 6.100963 -5.431809 41.116199 2.813446 2.774049 1.934930 -7.624173 -0.319759 -15.074009 5.347784 2.714616 38.260204 -2.486313 -2.759640 2.817702 -7.356296 -1.004928 
-7.800665 47.127872 39.252369 -5.473380 -2.352520 46.367699 -24.620399 0.711118 -2.265320 13.259100 1.520790 -1.034500 -5.909278 -8.902558 -17.812117 5.806280 10.792000 -6.666610 2.000000 -2.000000 0.000000 124.487000 -71.241798 -3.649050 53.408699 -0.296347 0.109825 0.152529 -0.161354 152.199005 -2.000000 2.000000 0.000000 -41.005299 63.973598 82.864304 -63.604000 0.275630 0.122468 -0.068866 -0.056825 -112.400002 -9.513178 5.618232 -4.948739 39.581375 2.863673 2.679157 3.106804 -4.612573 -0.274485 -14.918540 5.369838 2.906473 36.924297 -2.510201 -2.685516 2.454639 -9.018374 -1.062384 
-7.736295 47.575569 39.347179 -5.054270 -2.655660 46.435699 -24.983999 0.662129 -2.005660 13.142400 1.365450 -0.910039 -6.149532 -9.015944 -18.179136 5.687880 10.910000 -6.782880 2.000000 -2.000000 0.000000 122.116997 -69.384003 -0.512092 50.859901 -0.301148 0.106093 0.150595 -0.160670 152.932007 -2.000000 2.000000 0.000000 -47.665699 61.802799 76.344902 -55.635300 0.292020 0.112859 -0.068607 -0.056252 -112.625000 -9.536667 5.263207 -4.037756 38.323540 2.888398 2.618529 3.232431 -1.606835 -0.454598 -14.808190 5.454158 2.816791 36.137535 -2.533772 -2.638741 0.845777 -9.950498 -1.459604 
